<?xml version="1.0" standalone="no"?><!DOCTYPE svg PUBLIC "-//W3C//DTD SVG 1.1//EN" "http://www.w3.org/Graphics/SVG/1.1/DTD/svg11.dtd"><svg t="1711721473748" class="icon" viewBox="0 0 1024 1024" version="1.1" xmlns="http://www.w3.org/2000/svg" p-id="8748" xmlns:xlink="http://www.w3.org/1999/xlink" width="200" height="200"><path d="M173.421714 54.857143A46.628571 46.628571 0 0 0 128 100.333714v819.108572a43.483429 43.483429 0 0 0 13.641143 31.817143 44.598857 44.598857 0 0 0 31.780571 13.677714h666.368a43.446857 43.446857 0 0 0 31.762286-13.659429 44.982857 44.982857 0 0 0 13.641143-31.817143V221.184L719.177143 54.857143H173.403429z" fill="#FE5359" p-id="8749"></path><path d="M328.411429 447.268571c16.146286 0 30.189714 2.706286 42.130285 8.155429 11.940571 5.266286 21.065143 12.8 27.373715 22.637714 6.509714 9.837714 9.746286 21.321143 9.746285 34.486857s-3.236571 24.685714-9.746285 34.505143c-6.308571 9.819429-15.433143 17.462857-27.373715 22.912-11.940571 5.266286-25.984 7.899429-42.130285 7.899429h-24.758858V640h-45.019428V447.268571h69.778286z m-5.010286 92.672c10.88 0 19.748571-2.102857 26.605714-6.326857 6.838857-4.205714 10.258286-11.227429 10.258286-21.065143 0-9.654857-3.510857-16.585143-10.532572-20.790857-6.838857-4.388571-15.616-6.582857-26.331428-6.582857h-19.748572v54.765714h19.748572z m177.810286-92.690285c18.779429 0 35.803429 3.785143 51.072 11.337143a85.504 85.504 0 0 1 36.077714 33.170285c8.96 14.390857 13.421714 31.597714 13.421714 51.602286 0 20.022857-4.461714 37.302857-13.421714 51.876571a87.241143 87.241143 0 0 1-36.077714 33.444572c-15.085714 7.552-32.128 11.318857-51.072 11.318857h-69.522286V447.268571h69.522286z m-5.010286 154.825143c19.126857 0 33.609143-5.083429 43.446857-15.268572 9.819429-10.185143 14.738286-24.667429 14.738286-43.446857 0-18.596571-4.992-32.914286-14.994286-42.916571-9.837714-10.185143-24.228571-15.268571-43.190857-15.268572H476.708571v116.900572h19.492572z m134.765714-154.825143h129.024v39.241143H676.022857v42.130285h75.300572v38.966857H676.022857V640h-45.037714V447.268571z" fill="#FFFFFF" p-id="8750"></path></svg>